<?xml version="1.0" standalone="no"?>
<!DOCTYPE svg PUBLIC "-//W3C//DTD SVG 20010904//EN"
 "http://www.w3.org/TR/2001/REC-SVG-20010904/DTD/svg10.dtd">
<svg version="1.0" xmlns="http://www.w3.org/2000/svg"
 width="2000.000000pt" height="543.000000pt" viewBox="0 0 2000.000000 543.000000"
 preserveAspectRatio="xMidYMid meet">

<g transform="translate(0.000000,543.000000) scale(0.100000,-0.100000)"
fill="#000000" stroke="none">
<path d="M11630 2795 l0 -1095 120 0 120 0 0 1095 0 1095 -120 0 -120 0 0
-1095z"/>
<path d="M16760 3300 l0 -230 -160 0 -160 0 0 -100 0 -100 155 0 155 0 0 -585
0 -585 120 0 120 0 0 585 0 585 170 0 170 0 0 100 0 100 -175 0 -175 0 0 230
0 230 -110 0 -110 0 0 -230z"/>
<path d="M3253 3079 c-229 -21 -436 -174 -540 -397 -91 -196 -85 -435 18 -632
79 -153 232 -284 394 -337 69 -23 97 -26 205 -27 111 0 134 3 205 28 96 33
166 72 227 126 26 22 49 40 54 40 15 0 -4 -274 -24 -337 -66 -210 -250 -334
-496 -335 -161 -1 -270 40 -383 146 -35 32 -65 57 -67 55 -2 -2 -17 -61 -33
-131 l-30 -128 46 -30 c64 -40 185 -95 246 -110 86 -21 223 -29 314 -19 259
29 474 172 577 384 71 148 68 108 72 943 l3 752 -111 0 -110 0 0 -90 c0 -49
-2 -90 -5 -90 -3 0 -31 21 -63 47 -135 110 -309 159 -499 142z m222 -224 c125
-33 241 -125 302 -240 43 -82 54 -131 54 -235 0 -272 -205 -480 -472 -480
-188 0 -342 101 -428 280 -32 68 -36 85 -39 177 -4 83 0 115 17 171 74 245
324 390 566 327z"/>
<path d="M6464 3071 c-235 -64 -425 -244 -501 -476 -22 -67 -26 -99 -27 -200
-1 -145 11 -199 72 -325 39 -80 60 -109 132 -180 128 -128 245 -187 416 -211
366 -51 721 195 799 555 24 109 17 263 -18 368 -67 206 -241 381 -452 454
-109 37 -311 44 -421 15z m288 -212 c116 -25 240 -113 309 -220 98 -153 93
-371 -13 -529 -90 -135 -232 -210 -400 -210 -261 0 -480 221 -477 485 3 307
284 537 581 474z"/>
<path d="M8442 3070 c-227 -61 -428 -249 -502 -470 -31 -91 -39 -270 -16 -373
42 -188 174 -362 352 -463 174 -98 401 -119 589 -54 127 44 264 130 264 165 0
11 -15 78 -32 150 l-33 130 -32 -46 c-148 -217 -446 -274 -669 -130 -72 46
-134 120 -177 211 -26 56 -31 79 -34 167 -6 161 35 269 142 375 192 188 497
181 683 -16 32 -33 65 -71 73 -84 14 -21 17 -14 50 124 l34 147 -34 29 c-51
43 -147 95 -231 124 -104 37 -318 44 -427 14z"/>
<path d="M10142 3070 c-215 -57 -409 -241 -478 -454 -57 -175 -42 -371 43
-546 86 -177 259 -317 460 -372 110 -29 307 -30 414 0 81 22 177 66 245 113
l42 29 -29 117 c-17 65 -32 124 -34 131 -3 8 -25 -7 -61 -41 -159 -156 -405
-193 -606 -91 -71 36 -169 132 -207 203 -26 49 -66 170 -58 176 1 1 29 -1 62
-6 33 -4 288 -8 568 -8 l507 -1 0 96 c0 119 -21 211 -68 303 -91 175 -251 303
-438 351 -102 26 -261 26 -362 0z m317 -209 c85 -26 137 -60 204 -130 53 -55
95 -128 110 -191 l6 -26 -372 1 c-205 0 -409 -3 -454 -8 -99 -9 -100 -7 -49
98 104 217 336 324 555 256z"/>
<path d="M13773 3079 c-225 -21 -422 -162 -533 -381 -56 -112 -73 -202 -68
-351 4 -104 9 -134 35 -203 160 -427 638 -592 1013 -349 36 23 73 52 84 63 10
12 23 19 27 16 5 -3 9 -43 9 -90 l0 -84 110 0 110 0 0 685 0 685 -110 0 -110
0 0 -90 c0 -49 -3 -90 -6 -90 -3 0 -31 21 -62 47 -135 110 -308 159 -499 142z
m270 -239 c32 -12 86 -43 120 -68 222 -169 253 -504 66 -716 -143 -162 -394
-205 -579 -98 -94 54 -181 156 -215 252 -96 271 54 569 326 645 75 21 206 14
282 -15z"/>
<path d="M5328 3064 c-116 -28 -246 -115 -309 -208 -13 -20 -27 -36 -31 -36
-5 0 -8 56 -8 125 l0 125 -110 0 -110 0 0 -685 0 -685 120 0 120 0 0 363 c1
398 8 473 55 570 37 74 106 143 180 178 70 33 188 52 253 40 37 -7 42 -6 38 8
-3 9 -12 45 -21 81 -38 153 -31 140 -78 139 -23 0 -68 -7 -99 -15z"/>
<path d="M15847 3064 c-32 -7 -83 -26 -114 -41 -61 -30 -172 -127 -200 -174
-10 -16 -21 -29 -25 -29 -4 0 -8 56 -8 125 l0 125 -110 0 -110 0 0 -685 0
-685 119 0 120 0 3 403 c4 381 5 405 26 468 53 159 170 255 340 279 40 5 89 6
115 1 l44 -8 -30 119 -29 118 -42 -1 c-22 0 -67 -7 -99 -15z"/>
<path d="M12165 2765 c-137 -167 -250 -308 -250 -313 0 -5 137 -176 305 -380
l305 -372 148 0 c81 0 147 2 147 5 0 3 -139 174 -310 380 -170 207 -310 380
-310 386 0 8 334 414 478 582 14 16 8 17 -124 16 l-139 0 -250 -304z"/>
</g>
</svg>
